<svg xmlns="http://www.w3.org/2000/svg" viewBox="0 0 100 100"><rect width="100" height="100" rx="20" fill="#ae2070"/><path d="M22,60 V40 c0,-5 4,-8 8,-8 c3.5,0 6.5,2 8,5 c1.5,-3 4.5,-5 8,-5 c4,0 8,3 8,8 v20 h-6 V42 c0,-3 -1,-4 -3,-4 c-2,0 -4,2 -4,5 v17 h-6 V42 c0,-3 -1,-4 -3,-4 c-2,0 -4,2 -4,5 v17 Z" fill="#fff"/><path d="M60,60 V40 c0,-5 4,-8 8,-8 c3.5,0 6.5,2 8,5 c1.5,-3 4.5,-5 8,-5 c4,0 8,3 8,8 v20 h-6 V42 c0,-3 -1,-4 -3,-4 c-2,0 -4,2 -4,5 v17 h-6 V42 c0,-3 -1,-4 -3,-4 c-2,0 -4,2 -4,5 v17 Z" fill="#fff"/></svg>
